<mxfile host="app.diagrams.net" agent="Mozilla/5.0 (Windows NT 10.0; Win64; x64) AppleWebKit/537.36 (KHTML, like Gecko) Chrome/133.0.0.0 Safari/537.36" version="26.0.14">
  <diagram name="Seite-1" id="eWULCEAR82o65giofD4O">
    <mxGraphModel dx="2492" dy="824" grid="1" gridSize="10" guides="1" tooltips="1" connect="1" arrows="1" fold="1" page="1" pageScale="1" pageWidth="827" pageHeight="1169" math="0" shadow="0">
      <root>
        <mxCell id="0" />
        <mxCell id="1" parent="0" />
        <mxCell id="KOcHXtH_pvwIGbMln__z-2" value="Income" style="swimlane;html=1;container=0;movable=1;resizable=1;rotatable=1;deletable=1;editable=1;locked=0;connectable=1;" parent="1" vertex="1">
          <mxGeometry x="360" y="30" width="160" height="160" as="geometry" />
        </mxCell>
        <mxCell id="kt0_QNNV7WrdW6sHO9xF-16" value="Date" style="text;container=0;movable=1;resizable=1;rotatable=1;deletable=1;editable=1;locked=0;connectable=1;" parent="KOcHXtH_pvwIGbMln__z-2" vertex="1">
          <mxGeometry x="20" y="120" width="120" height="20" as="geometry" />
        </mxCell>
        <mxCell id="KOcHXtH_pvwIGbMln__z-8" value="User" style="swimlane;html=1;" parent="1" vertex="1">
          <mxGeometry x="100" y="30" width="160" height="180" as="geometry" />
        </mxCell>
        <mxCell id="KOcHXtH_pvwIGbMln__z-9" value="UserID (PK)" style="text" parent="KOcHXtH_pvwIGbMln__z-8" vertex="1">
          <mxGeometry x="20" y="20" width="120" height="20" as="geometry" />
        </mxCell>
        <mxCell id="KOcHXtH_pvwIGbMln__z-10" value="Username" style="text" parent="KOcHXtH_pvwIGbMln__z-8" vertex="1">
          <mxGeometry x="20" y="40" width="120" height="20" as="geometry" />
        </mxCell>
        <mxCell id="KOcHXtH_pvwIGbMln__z-11" value="Password" style="text" parent="KOcHXtH_pvwIGbMln__z-8" vertex="1">
          <mxGeometry x="20" y="60" width="120" height="20" as="geometry" />
        </mxCell>
        <mxCell id="KOcHXtH_pvwIGbMln__z-12" value="Email" style="text" parent="KOcHXtH_pvwIGbMln__z-8" vertex="1">
          <mxGeometry x="20" y="80" width="120" height="20" as="geometry" />
        </mxCell>
        <mxCell id="KOcHXtH_pvwIGbMln__z-13" value="CreatedAt" style="text" parent="KOcHXtH_pvwIGbMln__z-8" vertex="1">
          <mxGeometry x="20" y="100" width="120" height="20" as="geometry" />
        </mxCell>
        <mxCell id="KOcHXtH_pvwIGbMln__z-18" value="Expenses" style="swimlane;html=1;" parent="1" vertex="1">
          <mxGeometry x="610" y="30" width="160" height="160" as="geometry" />
        </mxCell>
        <mxCell id="KOcHXtH_pvwIGbMln__z-19" value="ExpenseID (PK)" style="text" parent="KOcHXtH_pvwIGbMln__z-18" vertex="1">
          <mxGeometry x="20" y="20" width="120" height="20" as="geometry" />
        </mxCell>
        <mxCell id="KOcHXtH_pvwIGbMln__z-20" value="UserID (FK)" style="text" parent="KOcHXtH_pvwIGbMln__z-18" vertex="1">
          <mxGeometry x="20" y="40" width="120" height="20" as="geometry" />
        </mxCell>
        <mxCell id="KOcHXtH_pvwIGbMln__z-21" value="Amount" style="text" parent="KOcHXtH_pvwIGbMln__z-18" vertex="1">
          <mxGeometry x="20" y="60" width="120" height="20" as="geometry" />
        </mxCell>
        <mxCell id="KOcHXtH_pvwIGbMln__z-22" value="Category" style="text" parent="KOcHXtH_pvwIGbMln__z-18" vertex="1">
          <mxGeometry x="20" y="80" width="120" height="20" as="geometry" />
        </mxCell>
        <mxCell id="KOcHXtH_pvwIGbMln__z-23" value="Description" style="text" parent="KOcHXtH_pvwIGbMln__z-18" vertex="1">
          <mxGeometry x="20" y="100" width="120" height="20" as="geometry" />
        </mxCell>
        <mxCell id="-vq1ojCxZYvq6h7XA5zV-1" value="Date" style="text" vertex="1" parent="KOcHXtH_pvwIGbMln__z-18">
          <mxGeometry x="20" y="120" width="120" height="20" as="geometry" />
        </mxCell>
        <mxCell id="KOcHXtH_pvwIGbMln__z-3" value="IncomeID (PK)" style="text;container=0;movable=1;resizable=1;rotatable=1;deletable=1;editable=1;locked=0;connectable=1;fontStyle=4" parent="1" vertex="1">
          <mxGeometry x="380" y="50" width="120" height="20" as="geometry" />
        </mxCell>
        <mxCell id="KOcHXtH_pvwIGbMln__z-4" value="UserID (FK)" style="text;container=0;movable=1;resizable=1;rotatable=1;deletable=1;editable=1;locked=0;connectable=1;" parent="1" vertex="1">
          <mxGeometry x="380" y="70" width="120" height="20" as="geometry" />
        </mxCell>
        <mxCell id="KOcHXtH_pvwIGbMln__z-5" value="Amount" style="text;container=0;movable=1;resizable=1;rotatable=1;deletable=1;editable=1;locked=0;connectable=1;" parent="1" vertex="1">
          <mxGeometry x="380" y="90" width="120" height="20" as="geometry" />
        </mxCell>
        <mxCell id="KOcHXtH_pvwIGbMln__z-6" value="Category" style="text;container=0;movable=1;resizable=1;rotatable=1;deletable=1;editable=1;locked=0;connectable=1;" parent="1" vertex="1">
          <mxGeometry x="380" y="110" width="120" height="20" as="geometry" />
        </mxCell>
        <mxCell id="KOcHXtH_pvwIGbMln__z-7" value="Description" style="text;container=0;movable=1;resizable=1;rotatable=1;deletable=1;editable=1;locked=0;connectable=1;" parent="1" vertex="1">
          <mxGeometry x="380" y="130" width="120" height="20" as="geometry" />
        </mxCell>
        <mxCell id="kt0_QNNV7WrdW6sHO9xF-9" value="FixedCosts" style="swimlane;html=1;container=0;movable=1;resizable=1;rotatable=1;deletable=1;editable=1;locked=0;connectable=1;" parent="1" vertex="1">
          <mxGeometry x="122" y="250" width="160" height="180" as="geometry" />
        </mxCell>
        <mxCell id="kt0_QNNV7WrdW6sHO9xF-15" value="Interval" style="text;container=0;movable=1;resizable=1;rotatable=1;deletable=1;editable=1;locked=0;connectable=1;" parent="kt0_QNNV7WrdW6sHO9xF-9" vertex="1">
          <mxGeometry x="20" y="130" width="120" height="20" as="geometry" />
        </mxCell>
        <mxCell id="kt0_QNNV7WrdW6sHO9xF-12" value="Amount" style="text;container=0;movable=1;resizable=1;rotatable=1;deletable=1;editable=1;locked=0;connectable=1;" parent="kt0_QNNV7WrdW6sHO9xF-9" vertex="1">
          <mxGeometry x="20" y="70" width="120" height="20" as="geometry" />
        </mxCell>
        <mxCell id="kt0_QNNV7WrdW6sHO9xF-13" value="Category" style="text;container=0;movable=1;resizable=1;rotatable=1;deletable=1;editable=1;locked=0;connectable=1;" parent="kt0_QNNV7WrdW6sHO9xF-9" vertex="1">
          <mxGeometry x="20" y="90" width="120" height="20" as="geometry" />
        </mxCell>
        <mxCell id="kt0_QNNV7WrdW6sHO9xF-14" value="Description" style="text;container=0;movable=1;resizable=1;rotatable=1;deletable=1;editable=1;locked=0;connectable=1;" parent="kt0_QNNV7WrdW6sHO9xF-9" vertex="1">
          <mxGeometry x="20" y="110" width="120" height="20" as="geometry" />
        </mxCell>
        <mxCell id="kt0_QNNV7WrdW6sHO9xF-11" value="UserID (FK)" style="text;container=0;movable=1;resizable=1;rotatable=1;deletable=1;editable=1;locked=0;connectable=1;" parent="kt0_QNNV7WrdW6sHO9xF-9" vertex="1">
          <mxGeometry x="20" y="50" width="120" height="20" as="geometry" />
        </mxCell>
        <mxCell id="-vq1ojCxZYvq6h7XA5zV-2" value="StartDate" style="text;container=0;movable=1;resizable=1;rotatable=1;deletable=1;editable=1;locked=0;connectable=1;" vertex="1" parent="kt0_QNNV7WrdW6sHO9xF-9">
          <mxGeometry x="20" y="150" width="120" height="20" as="geometry" />
        </mxCell>
        <mxCell id="kt0_QNNV7WrdW6sHO9xF-10" value="FixedostID (PK)" style="text;container=0;movable=1;resizable=1;rotatable=1;deletable=1;editable=1;locked=0;connectable=1;fontStyle=4" parent="1" vertex="1">
          <mxGeometry x="142" y="275" width="120" height="15" as="geometry" />
        </mxCell>
        <mxCell id="kt0_QNNV7WrdW6sHO9xF-29" value="Assets" style="swimlane;html=1;container=0;movable=1;resizable=1;rotatable=1;deletable=1;editable=1;locked=0;connectable=1;" parent="1" vertex="1">
          <mxGeometry x="360" y="250" width="160" height="160" as="geometry" />
        </mxCell>
        <mxCell id="kt0_QNNV7WrdW6sHO9xF-30" value="Description" style="text;container=0;movable=1;resizable=1;rotatable=1;deletable=1;editable=1;locked=0;connectable=1;" parent="kt0_QNNV7WrdW6sHO9xF-29" vertex="1">
          <mxGeometry x="20" y="130" width="120" height="20" as="geometry" />
        </mxCell>
        <mxCell id="kt0_QNNV7WrdW6sHO9xF-31" value="AssetID (PK)" style="text;container=0;movable=1;resizable=1;rotatable=1;deletable=1;editable=1;locked=0;connectable=1;fontStyle=4" parent="kt0_QNNV7WrdW6sHO9xF-29" vertex="1">
          <mxGeometry x="20" y="30" width="120" height="20" as="geometry" />
        </mxCell>
        <mxCell id="kt0_QNNV7WrdW6sHO9xF-32" value="UserID (FK)" style="text;container=0;movable=1;resizable=1;rotatable=1;deletable=1;editable=1;locked=0;connectable=1;" parent="kt0_QNNV7WrdW6sHO9xF-29" vertex="1">
          <mxGeometry x="20" y="50" width="120" height="20" as="geometry" />
        </mxCell>
        <mxCell id="kt0_QNNV7WrdW6sHO9xF-33" value="Name" style="text;container=0;movable=1;resizable=1;rotatable=1;deletable=1;editable=1;locked=0;connectable=1;" parent="kt0_QNNV7WrdW6sHO9xF-29" vertex="1">
          <mxGeometry x="20" y="70" width="120" height="20" as="geometry" />
        </mxCell>
        <mxCell id="kt0_QNNV7WrdW6sHO9xF-34" value="Value" style="text;container=0;movable=1;resizable=1;rotatable=1;deletable=1;editable=1;locked=0;connectable=1;" parent="kt0_QNNV7WrdW6sHO9xF-29" vertex="1">
          <mxGeometry x="20" y="90" width="120" height="20" as="geometry" />
        </mxCell>
        <mxCell id="kt0_QNNV7WrdW6sHO9xF-35" value="PurchaseDate" style="text;container=0;movable=1;resizable=1;rotatable=1;deletable=1;editable=1;locked=0;connectable=1;" parent="kt0_QNNV7WrdW6sHO9xF-29" vertex="1">
          <mxGeometry x="20" y="110" width="120" height="20" as="geometry" />
        </mxCell>
        <mxCell id="-vq1ojCxZYvq6h7XA5zV-3" value="CurrentAssets" style="swimlane;html=1;container=0;movable=1;resizable=1;rotatable=1;deletable=1;editable=1;locked=0;connectable=1;" vertex="1" parent="1">
          <mxGeometry x="590" y="250" width="160" height="140" as="geometry" />
        </mxCell>
        <mxCell id="-vq1ojCxZYvq6h7XA5zV-5" value="CurrentAssetID (PK)" style="text;container=0;movable=1;resizable=1;rotatable=1;deletable=1;editable=1;locked=0;connectable=1;fontStyle=4" vertex="1" parent="-vq1ojCxZYvq6h7XA5zV-3">
          <mxGeometry x="20" y="30" width="120" height="20" as="geometry" />
        </mxCell>
        <mxCell id="-vq1ojCxZYvq6h7XA5zV-6" value="UserID (FK)" style="text;container=0;movable=1;resizable=1;rotatable=1;deletable=1;editable=1;locked=0;connectable=1;" vertex="1" parent="-vq1ojCxZYvq6h7XA5zV-3">
          <mxGeometry x="20" y="50" width="120" height="20" as="geometry" />
        </mxCell>
        <mxCell id="-vq1ojCxZYvq6h7XA5zV-7" value="Name" style="text;container=0;movable=1;resizable=1;rotatable=1;deletable=1;editable=1;locked=0;connectable=1;" vertex="1" parent="-vq1ojCxZYvq6h7XA5zV-3">
          <mxGeometry x="20" y="70" width="120" height="20" as="geometry" />
        </mxCell>
        <mxCell id="-vq1ojCxZYvq6h7XA5zV-8" value="Value" style="text;container=0;movable=1;resizable=1;rotatable=1;deletable=1;editable=1;locked=0;connectable=1;" vertex="1" parent="-vq1ojCxZYvq6h7XA5zV-3">
          <mxGeometry x="20" y="90" width="120" height="20" as="geometry" />
        </mxCell>
        <mxCell id="-vq1ojCxZYvq6h7XA5zV-9" value="LastUpdated" style="text;container=0;movable=1;resizable=1;rotatable=1;deletable=1;editable=1;locked=0;connectable=1;" vertex="1" parent="-vq1ojCxZYvq6h7XA5zV-3">
          <mxGeometry x="20" y="110" width="120" height="20" as="geometry" />
        </mxCell>
        <mxCell id="-vq1ojCxZYvq6h7XA5zV-10" value="MonthlySummary" style="swimlane;html=1;container=0;movable=1;resizable=1;rotatable=1;deletable=1;editable=1;locked=0;connectable=1;" vertex="1" parent="1">
          <mxGeometry x="122" y="470" width="160" height="180" as="geometry" />
        </mxCell>
        <mxCell id="-vq1ojCxZYvq6h7XA5zV-11" value="TotalExpenses" style="text;container=0;movable=1;resizable=1;rotatable=1;deletable=1;editable=1;locked=0;connectable=1;" vertex="1" parent="-vq1ojCxZYvq6h7XA5zV-10">
          <mxGeometry x="20" y="130" width="120" height="20" as="geometry" />
        </mxCell>
        <mxCell id="-vq1ojCxZYvq6h7XA5zV-12" value="Month" style="text;container=0;movable=1;resizable=1;rotatable=1;deletable=1;editable=1;locked=0;connectable=1;" vertex="1" parent="-vq1ojCxZYvq6h7XA5zV-10">
          <mxGeometry x="20" y="70" width="120" height="20" as="geometry" />
        </mxCell>
        <mxCell id="-vq1ojCxZYvq6h7XA5zV-13" value="Year" style="text;container=0;movable=1;resizable=1;rotatable=1;deletable=1;editable=1;locked=0;connectable=1;" vertex="1" parent="-vq1ojCxZYvq6h7XA5zV-10">
          <mxGeometry x="20" y="90" width="120" height="20" as="geometry" />
        </mxCell>
        <mxCell id="-vq1ojCxZYvq6h7XA5zV-14" value="TotalIncome" style="text;container=0;movable=1;resizable=1;rotatable=1;deletable=1;editable=1;locked=0;connectable=1;" vertex="1" parent="-vq1ojCxZYvq6h7XA5zV-10">
          <mxGeometry x="20" y="110" width="120" height="20" as="geometry" />
        </mxCell>
        <mxCell id="-vq1ojCxZYvq6h7XA5zV-15" value="UserID (FK)" style="text;container=0;movable=1;resizable=1;rotatable=1;deletable=1;editable=1;locked=0;connectable=1;" vertex="1" parent="-vq1ojCxZYvq6h7XA5zV-10">
          <mxGeometry x="20" y="50" width="120" height="20" as="geometry" />
        </mxCell>
        <mxCell id="-vq1ojCxZYvq6h7XA5zV-16" value="Balance" style="text;container=0;movable=1;resizable=1;rotatable=1;deletable=1;editable=1;locked=0;connectable=1;" vertex="1" parent="-vq1ojCxZYvq6h7XA5zV-10">
          <mxGeometry x="20" y="150" width="120" height="20" as="geometry" />
        </mxCell>
        <mxCell id="-vq1ojCxZYvq6h7XA5zV-17" value="SummaryID (PK)" style="text;container=0;movable=1;resizable=1;rotatable=1;deletable=1;editable=1;locked=0;connectable=1;fontStyle=4" vertex="1" parent="1">
          <mxGeometry x="142" y="495" width="120" height="15" as="geometry" />
        </mxCell>
      </root>
    </mxGraphModel>
  </diagram>
</mxfile>
